<?xml version="1.0" encoding="UTF-8"?>
<svg version="1.1" xmlns="http://www.w3.org/2000/svg" width="500" height="500">
<path d="M0 0 C10.56 0 21.12 0 32 0 C32 10.56 32 21.12 32 32 C42.23 32 52.46 32 63 32 C63 42.23 63 52.46 63 63 C73.23 63 83.46 63 94 63 C94 73.23 94 83.46 94 94 C104.23 94 114.46 94 125 94 C125 104.23 125 114.46 125 125 C135.56 125 146.12 125 157 125 C157 135.56 157 146.12 157 157 C167.23 157 177.46 157 188 157 C188 177.46 188 197.92 188 219 C177.77 219 167.54 219 157 219 C157 229.23 157 239.46 157 250 C136.21 250 115.42 250 94 250 C94 260.56 94 271.12 94 282 C83.77 282 73.54 282 63 282 C63 292.23 63 302.46 63 313 C52.77 313 42.54 313 32 313 C32 323.23 32 333.46 32 344 C21.44 344 10.88 344 0 344 C0 364.79 0 385.58 0 407 C-10.23 407 -20.46 407 -31 407 C-31 417.23 -31 427.46 -31 438 C-51.46 438 -71.92 438 -93 438 C-93 427.77 -93 417.54 -93 407 C-103.56 407 -114.12 407 -125 407 C-125 396.44 -125 385.88 -125 375 C-135.23 375 -145.46 375 -156 375 C-156 364.77 -156 354.54 -156 344 C-166.23 344 -176.46 344 -187 344 C-187 333.77 -187 323.54 -187 313 C-197.23 313 -207.46 313 -218 313 C-218 292.21 -218 271.42 -218 250 C-207.77 250 -197.54 250 -187 250 C-187 239.77 -187 229.54 -187 219 C-176.77 219 -166.54 219 -156 219 C-156 208.77 -156 198.54 -156 188 C-145.77 188 -135.54 188 -125 188 C-125 177.77 -125 167.54 -125 157 C-114.44 157 -103.88 157 -93 157 C-93 146.44 -93 135.88 -93 125 C-82.77 125 -72.54 125 -62 125 C-62 114.77 -62 104.54 -62 94 C-51.77 94 -41.54 94 -31 94 C-31 73.54 -31 53.08 -31 32 C-20.77 32 -10.54 32 0 32 C0 21.44 0 10.88 0 0 Z " fill="#D7CCB1" transform="translate(281,31)"/>
<path d="M0 0 C20.46 0 40.92 0 62 0 C62 20.79 62 41.58 62 63 C72.23 63 82.46 63 93 63 C93 42.21 93 21.42 93 0 C103.56 0 114.12 0 125 0 C125 10.56 125 21.12 125 32 C135.23 32 145.46 32 156 32 C156 52.46 156 72.92 156 94 C145.77 94 135.54 94 125 94 C125 104.23 125 114.46 125 125 C104.21 125 83.42 125 62 125 C62 135.56 62 146.12 62 157 C51.77 157 41.54 157 31 157 C31 167.23 31 177.46 31 188 C20.77 188 10.54 188 0 188 C0 156.98 0 125.96 0 94 C10.23 94 20.46 94 31 94 C31 73.54 31 53.08 31 32 C20.77 32 10.54 32 0 32 C0 21.44 0 10.88 0 0 Z " fill="#BCB29C" transform="translate(313,156)"/>
<path d="M0 0 C10.56 0 21.12 0 32 0 C32 10.56 32 21.12 32 32 C42.23 32 52.46 32 63 32 C63 42.23 63 52.46 63 63 C73.23 63 83.46 63 94 63 C94 73.23 94 83.46 94 94 C104.23 94 114.46 94 125 94 C125 125.02 125 156.04 125 188 C114.77 188 104.54 188 94 188 C94 167.21 94 146.42 94 125 C62.98 125 31.96 125 0 125 C0 114.77 0 104.54 0 94 C-10.23 94 -20.46 94 -31 94 C-31 73.54 -31 53.08 -31 32 C-20.77 32 -10.54 32 0 32 C0 21.44 0 10.88 0 0 Z " fill="#D0C5AC" transform="translate(281,31)"/>
<path d="M0 0 C10.56 0 21.12 0 32 0 C32 10.56 32 21.12 32 32 C42.23 32 52.46 32 63 32 C63 52.46 63 72.92 63 94 C52.77 94 42.54 94 32 94 C32 104.23 32 114.46 32 125 C11.21 125 -9.58 125 -31 125 C-31 104.54 -31 84.08 -31 63 C-20.77 63 -10.54 63 0 63 C0 42.21 0 21.42 0 0 Z " fill="#38342A" transform="translate(406,156)"/>
<path d="M0 0 C31.02 0 62.04 0 94 0 C94 31.02 94 62.04 94 94 C83.44 94 72.88 94 62 94 C62 83.44 62 72.88 62 62 C51.77 62 41.54 62 31 62 C31 51.77 31 41.54 31 31 C20.77 31 10.54 31 0 31 C0 20.77 0 10.54 0 0 Z " fill="#9A927E" transform="translate(94,344)"/>
<path d="M0 0 C10.23 0 20.46 0 31 0 C31 10.23 31 20.46 31 31 C41.56 31 52.12 31 63 31 C63 41.56 63 52.12 63 63 C73.23 63 83.46 63 94 63 C94 73.23 94 83.46 94 94 C62.98 94 31.96 94 0 94 C0 62.98 0 31.96 0 0 Z " fill="#DBD0B4" transform="translate(250,125)"/>
<path d="M0 0 C10.56 0 21.12 0 32 0 C32 10.56 32 21.12 32 32 C42.23 32 52.46 32 63 32 C63 42.23 63 52.46 63 63 C42.21 63 21.42 63 0 63 C0 73.23 0 83.46 0 94 C-10.23 94 -20.46 94 -31 94 C-31 73.54 -31 53.08 -31 32 C-20.77 32 -10.54 32 0 32 C0 21.44 0 10.88 0 0 Z " fill="#DBD0B4" transform="translate(281,31)"/>
<path d="M0 0 C10.23 0 20.46 0 31 0 C31 20.79 31 41.58 31 63 C20.77 63 10.54 63 0 63 C0 73.23 0 83.46 0 94 C-20.46 94 -40.92 94 -62 94 C-62 83.77 -62 73.54 -62 63 C-51.77 63 -41.54 63 -31 63 C-31 52.44 -31 41.88 -31 31 C-20.77 31 -10.54 31 0 31 C0 20.77 0 10.54 0 0 Z " fill="#38342A" transform="translate(250,375)"/>
<path d="M0 0 C20.79 0 41.58 0 63 0 C63 20.46 63 40.92 63 62 C42.21 62 21.42 62 0 62 C0 41.54 0 21.08 0 0 Z " fill="#BCB29C" transform="translate(250,313)"/>
<path d="M0 0 C10.23 0 20.46 0 31 0 C31 20.79 31 41.58 31 63 C20.77 63 10.54 63 0 63 C0 73.23 0 83.46 0 94 C-10.23 94 -20.46 94 -31 94 C-31 73.21 -31 52.42 -31 31 C-20.77 31 -10.54 31 0 31 C0 20.77 0 10.54 0 0 Z " fill="#AEA694" transform="translate(94,250)"/>
<path d="M0 0 C20.46 0 40.92 0 62 0 C62 20.79 62 41.58 62 63 C51.77 63 41.54 63 31 63 C31 52.77 31 42.54 31 32 C20.77 32 10.54 32 0 32 C0 21.44 0 10.88 0 0 Z " fill="#BCB29C" transform="translate(313,156)"/>
<path d="M0 0 C10.23 0 20.46 0 31 0 C31 20.79 31 41.58 31 63 C10.54 63 -9.92 63 -31 63 C-31 52.44 -31 41.88 -31 31 C-20.77 31 -10.54 31 0 31 C0 20.77 0 10.54 0 0 Z " fill="#C6BCA5" transform="translate(219,125)"/>
<path d="M0 0 C20.46 0 40.92 0 62 0 C62 10.23 62 20.46 62 31 C51.77 31 41.54 31 31 31 C31 41.56 31 52.12 31 63 C20.77 63 10.54 63 0 63 C0 42.21 0 21.42 0 0 Z " fill="#BCB29C" transform="translate(188,375)"/>
<path d="M0 0 C10.23 0 20.46 0 31 0 C31 10.23 31 20.46 31 31 C41.56 31 52.12 31 63 31 C63 41.23 63 51.46 63 62 C42.21 62 21.42 62 0 62 C0 41.54 0 21.08 0 0 Z " fill="#38342A" transform="translate(375,219)"/>
<path d="M0 0 C20.46 0 40.92 0 62 0 C62 20.46 62 40.92 62 62 C51.77 62 41.54 62 31 62 C31 51.77 31 41.54 31 31 C20.77 31 10.54 31 0 31 C0 20.77 0 10.54 0 0 Z " fill="#9A927E" transform="translate(94,344)"/>
<path d="M0 0 C10.23 0 20.46 0 31 0 C31 20.79 31 41.58 31 63 C20.77 63 10.54 63 0 63 C0 42.21 0 21.42 0 0 Z " fill="#38342A" transform="translate(63,281)"/>
<path d="M0 0 C10.23 0 20.46 0 31 0 C31 20.79 31 41.58 31 63 C20.77 63 10.54 63 0 63 C0 42.21 0 21.42 0 0 Z " fill="#DBD0B4" transform="translate(375,156)"/>
<path d="M0 0 C20.46 0 40.92 0 62 0 C62 10.23 62 20.46 62 31 C41.54 31 21.08 31 0 31 C0 20.77 0 10.54 0 0 Z " fill="#AEA694" transform="translate(94,313)"/>
<path d="M0 0 C10.23 0 20.46 0 31 0 C31 20.46 31 40.92 31 62 C20.77 62 10.54 62 0 62 C0 41.54 0 21.08 0 0 Z " fill="#38342A" transform="translate(250,63)"/>
<path d="M0 0 C10.56 0 21.12 0 32 0 C32 10.56 32 21.12 32 32 C21.44 32 10.88 32 0 32 C0 21.44 0 10.88 0 0 Z " fill="#38342A" transform="translate(156,406)"/>
<path d="M0 0 C10.56 0 21.12 0 32 0 C32 10.56 32 21.12 32 32 C21.44 32 10.88 32 0 32 C0 21.44 0 10.88 0 0 Z " fill="#38342A" transform="translate(281,31)"/>
<path d="M0 0 C10.23 0 20.46 0 31 0 C31 10.56 31 21.12 31 32 C20.77 32 10.54 32 0 32 C0 21.44 0 10.88 0 0 Z " fill="#9A927E" transform="translate(188,406)"/>
<path d="M0 0 C10.56 0 21.12 0 32 0 C32 10.23 32 20.46 32 31 C21.44 31 10.88 31 0 31 C0 20.77 0 10.54 0 0 Z " fill="#38342A" transform="translate(281,344)"/>
<path d="M0 0 C10.56 0 21.12 0 32 0 C32 10.23 32 20.46 32 31 C21.44 31 10.88 31 0 31 C0 20.77 0 10.54 0 0 Z " fill="#AEA694" transform="translate(156,344)"/>
<path d="M0 0 C10.23 0 20.46 0 31 0 C31 10.56 31 21.12 31 32 C20.77 32 10.54 32 0 32 C0 21.44 0 10.88 0 0 Z " fill="#38342A" transform="translate(344,281)"/>
<path d="M0 0 C10.56 0 21.12 0 32 0 C32 10.23 32 20.46 32 31 C21.44 31 10.88 31 0 31 C0 20.77 0 10.54 0 0 Z " fill="#807A6D" transform="translate(406,219)"/>
<path d="M0 0 C10.56 0 21.12 0 32 0 C32 10.23 32 20.46 32 31 C21.44 31 10.88 31 0 31 C0 20.77 0 10.54 0 0 Z " fill="#38342A" transform="translate(156,188)"/>
<path d="M0 0 C10.23 0 20.46 0 31 0 C31 10.56 31 21.12 31 32 C20.77 32 10.54 32 0 32 C0 21.44 0 10.88 0 0 Z " fill="#38342A" transform="translate(313,156)"/>
<path d="M0 0 C10.23 0 20.46 0 31 0 C31 10.56 31 21.12 31 32 C20.77 32 10.54 32 0 32 C0 21.44 0 10.88 0 0 Z " fill="#38342A" transform="translate(188,156)"/>
<path d="M0 0 C10.56 0 21.12 0 32 0 C32 10.23 32 20.46 32 31 C21.44 31 10.88 31 0 31 C0 20.77 0 10.54 0 0 Z " fill="#38342A" transform="translate(281,125)"/>
<path d="M0 0 C10.23 0 20.46 0 31 0 C31 10.23 31 20.46 31 31 C20.77 31 10.54 31 0 31 C0 20.77 0 10.54 0 0 Z " fill="#AEA694" transform="translate(188,375)"/>
<path d="M0 0 C10.23 0 20.46 0 31 0 C31 10.23 31 20.46 31 31 C20.77 31 10.54 31 0 31 C0 20.77 0 10.54 0 0 Z " fill="#38342A" transform="translate(125,375)"/>
<path d="M0 0 C10.23 0 20.46 0 31 0 C31 10.23 31 20.46 31 31 C20.77 31 10.54 31 0 31 C0 20.77 0 10.54 0 0 Z " fill="#38342A" transform="translate(94,344)"/>
<path d="M0 0 C10.23 0 20.46 0 31 0 C31 10.23 31 20.46 31 31 C20.77 31 10.54 31 0 31 C0 20.77 0 10.54 0 0 Z " fill="#38342A" transform="translate(313,313)"/>
<path d="M0 0 C10.23 0 20.46 0 31 0 C31 10.23 31 20.46 31 31 C20.77 31 10.54 31 0 31 C0 20.77 0 10.54 0 0 Z " fill="#9A927E" transform="translate(94,313)"/>
<path d="M0 0 C10.23 0 20.46 0 31 0 C31 10.23 31 20.46 31 31 C20.77 31 10.54 31 0 31 C0 20.77 0 10.54 0 0 Z " fill="#C6BCA5" transform="translate(188,250)"/>
<path d="M0 0 C10.23 0 20.46 0 31 0 C31 10.23 31 20.46 31 31 C20.77 31 10.54 31 0 31 C0 20.77 0 10.54 0 0 Z " fill="#38342A" transform="translate(94,250)"/>
<path d="M0 0 C10.23 0 20.46 0 31 0 C31 10.23 31 20.46 31 31 C20.77 31 10.54 31 0 31 C0 20.77 0 10.54 0 0 Z " fill="#38342A" transform="translate(125,219)"/>
<path d="M0 0 C10.23 0 20.46 0 31 0 C31 10.23 31 20.46 31 31 C20.77 31 10.54 31 0 31 C0 20.77 0 10.54 0 0 Z " fill="#BCB29C" transform="translate(375,188)"/>
<path d="M0 0 C10.23 0 20.46 0 31 0 C31 10.23 31 20.46 31 31 C20.77 31 10.54 31 0 31 C0 20.77 0 10.54 0 0 Z " fill="#38342A" transform="translate(344,188)"/>
<path d="M0 0 C10.23 0 20.46 0 31 0 C31 10.23 31 20.46 31 31 C20.77 31 10.54 31 0 31 C0 20.77 0 10.54 0 0 Z " fill="#C6BCA5" transform="translate(250,188)"/>
<path d="M0 0 C10.23 0 20.46 0 31 0 C31 10.23 31 20.46 31 31 C20.77 31 10.54 31 0 31 C0 20.77 0 10.54 0 0 Z " fill="#38342A" transform="translate(375,125)"/>
<path d="M0 0 C10.23 0 20.46 0 31 0 C31 10.23 31 20.46 31 31 C20.77 31 10.54 31 0 31 C0 20.77 0 10.54 0 0 Z " fill="#BCB29C" transform="translate(313,125)"/>
<path d="M0 0 C10.23 0 20.46 0 31 0 C31 10.23 31 20.46 31 31 C20.77 31 10.54 31 0 31 C0 20.77 0 10.54 0 0 Z " fill="#38342A" transform="translate(219,125)"/>
<path d="M0 0 C10.23 0 20.46 0 31 0 C31 10.23 31 20.46 31 31 C20.77 31 10.54 31 0 31 C0 20.77 0 10.54 0 0 Z " fill="#38342A" transform="translate(344,94)"/>
<path d="M0 0 C10.23 0 20.46 0 31 0 C31 10.23 31 20.46 31 31 C20.77 31 10.54 31 0 31 C0 20.77 0 10.54 0 0 Z " fill="#DBD0B4" transform="translate(313,94)"/>
<path d="M0 0 C10.23 0 20.46 0 31 0 C31 10.23 31 20.46 31 31 C20.77 31 10.54 31 0 31 C0 20.77 0 10.54 0 0 Z " fill="#38342A" transform="translate(313,63)"/>
</svg>
